<?xml version="1.0" encoding="UTF-8" standalone="no"?>
<!-- Created with Inkscape (http://www.inkscape.org/) -->

<svg
   width="1000"
   height="1000"
   viewBox="0 0 1000 1000"
   version="1.1"
   id="svg1"
   inkscape:version="1.4 (86a8ad7, 2024-10-11)"
   sodipodi:docname="Divine_Pharma_Pack.svg"
   inkscape:export-filename="final.png"
   inkscape:export-xdpi="96"
   inkscape:export-ydpi="96"
   xmlns:inkscape="http://www.inkscape.org/namespaces/inkscape"
   xmlns:sodipodi="http://sodipodi.sourceforge.net/DTD/sodipodi-0.dtd"
   xmlns="http://www.w3.org/2000/svg"
   xmlns:svg="http://www.w3.org/2000/svg">
  <sodipodi:namedview
     id="namedview1"
     pagecolor="#ffffff"
     bordercolor="#000000"
     borderopacity="0.25"
     inkscape:showpageshadow="true"
     inkscape:pageopacity="0.0"
     inkscape:pagecheckerboard="false"
     inkscape:deskcolor="#d1d1d1"
     inkscape:document-units="cm"
     showborder="true"
     borderlayer="true"
     labelstyle="default"
     inkscape:antialias-rendering="true"
     inkscape:clip-to-page="false"
     inkscape:lockguides="false"
     showguides="true"
     showgrid="false"
     inkscape:zoom="0.69670057"
     inkscape:cx="678.91433"
     inkscape:cy="511.69758"
     inkscape:window-width="1920"
     inkscape:window-height="991"
     inkscape:window-x="-9"
     inkscape:window-y="-9"
     inkscape:window-maximized="1"
     inkscape:current-layer="g5">
    <sodipodi:guide
       position="0,1000"
       orientation="0,1000"
       id="guide1"
       inkscape:locked="false" />
    <sodipodi:guide
       position="1000,1000"
       orientation="1000,0"
       id="guide2"
       inkscape:locked="false" />
    <sodipodi:guide
       position="919.5324,-4.7870598"
       orientation="0,-1000"
       id="guide3"
       inkscape:locked="false" />
    <sodipodi:guide
       position="0,0"
       orientation="-1000,0"
       id="guide4"
       inkscape:locked="false" />
    <inkscape:grid
       id="grid7"
       units="cm"
       originx="500"
       originy="500"
       spacingx="37.795276"
       spacingy="37.795276"
       empcolor="#0099e5"
       empopacity="0.30196078"
       color="#0099e5"
       opacity="0.14901961"
       empspacing="5"
       enabled="true"
       visible="false" />
  </sodipodi:namedview>
  <defs
     id="defs1">
    <linearGradient
       id="swatch5"
       inkscape:swatch="solid">
      <stop
         style="stop-color:#ee7e30;stop-opacity:1;"
         offset="0"
         id="stop5" />
    </linearGradient>
  </defs>
  <g
     inkscape:label="Layer 1"
     inkscape:groupmode="layer"
     id="layer1">
    <g
       id="g5">
      <g
         id="g3"
         inkscape:export-filename="C:\Users\Manshi\OneDrive\Desktop\lgog_dpp.svg"
         inkscape:export-xdpi="96"
         inkscape:export-ydpi="96">
        <text
           xml:space="preserve"
           style="font-weight:bold;font-size:66.9259px;font-family:'Bauhaus 93';-inkscape-font-specification:'Bauhaus 93 Bold';text-align:start;writing-mode:lr-tb;direction:ltr;text-anchor:start;fill:#800000;stroke-width:0.941508;stroke-dasharray:none"
           x="463.47198"
           y="461.04742"
           id="text7"><tspan
             sodipodi:role="line"
             id="tspan7"
             x="463.47198"
             y="461.04742"
             style="stroke-width:0.941508;stroke-dasharray:none" /></text>
        <path
           style="font-weight:bold;font-size:242.36px;line-height:21.6;font-family:'Bauhaus 93';-inkscape-font-specification:'Bauhaus 93 Bold';text-align:center;letter-spacing:0px;baseline-shift:baseline;text-anchor:middle;fill:#ee7e30;stroke-width:0.941508;stroke-dasharray:none"
           d="m 353.28879,464.276 v 110.32071 h -46.0331 V 419.83024 h 59.97909 c 26.30464,0 46.90237,5.97146 61.79321,17.91437 17.68759,14.28613 26.53139,33.67446 26.53139,58.16498 0,23.43228 -7.5588,42.55605 -22.6764,57.3713 -15.11761,14.81525 -34.58152,22.22288 -58.39175,22.22288 -2.79676,0 -7.36983,-0.15118 -13.71922,-0.45353 v -45.46619 h 7.36983 c 26.83374,0 40.25062,-11.22482 40.25062,-33.67446 0,-21.08906 -13.19012,-31.63359 -39.57033,-31.63359 z m 163.15675,-2.72116 V 574.59671 H 474.04066 V 461.55484 Z m -21.08906,-50.45501 c 5.74469,0 10.6957,2.04088 14.85305,6.12263 4.23292,4.00617 6.34939,8.76821 6.34939,14.28614 0,5.89586 -2.00308,10.7335 -6.00925,14.5129 -3.93058,3.7794 -8.99497,5.6691 -15.19319,5.6691 -6.19821,0 -11.3004,-1.8897 -15.30657,-5.6691 -3.93058,-3.7794 -5.89587,-8.61704 -5.89587,-14.5129 0,-5.51793 2.07867,-10.27997 6.23601,-14.28614 4.23293,-4.08175 9.22174,-6.12263 14.96643,-6.12263 z M 626.31272,461.55484 573.4767,579.01861 521.32097,461.55484 h 40.47738 l 12.0185,30.49975 13.15231,-30.49975 z m 46.94018,0 V 574.59671 H 630.84802 V 461.55484 Z m -21.08906,-50.45501 c 5.74469,0 10.6957,2.04088 14.85305,6.12263 4.23292,4.00617 6.34939,8.76821 6.34939,14.28614 0,5.89586 -2.00308,10.7335 -6.00925,14.5129 -3.93058,3.7794 -8.99497,5.6691 -15.19319,5.6691 -6.19822,0 -11.30041,-1.8897 -15.30657,-5.6691 -3.93058,-3.7794 -5.89587,-8.61704 -5.89587,-14.5129 0,-5.51793 2.07867,-10.27997 6.23601,-14.28614 4.23293,-4.08175 9.22174,-6.12263 14.96643,-6.12263 z m 146.82971,163.49688 h -42.40488 v -63.83408 c 0,-6.50057 -2.68337,-9.75085 -8.05012,-9.75085 -5.29117,0 -7.93675,3.25028 -7.93675,9.75085 v 63.83408 h -42.40487 v -63.0404 c 0,-14.73966 4.87542,-27.1361 14.62628,-37.18931 9.75086,-10.12879 21.69376,-15.19319 35.82872,-15.19319 16.17583,0 29.13918,5.85808 38.89004,17.57422 7.63438,9.14615 11.45158,21.88273 11.45158,38.20974 z m 135.83167,-49.66132 h -64.28761 c -0.98264,-3.25029 -1.47397,-6.23601 -1.47397,-8.95719 0,-3.77939 0.68029,-7.48321 2.04087,-11.11143 h 21.54258 c -1.51175,-8.39027 -6.23601,-12.58541 -14.17275,-12.58541 -5.29115,0 -9.59967,2.26764 -12.92555,6.80292 -3.32587,4.4597 -4.9888,10.20439 -4.9888,17.23407 0,7.33205 1.58735,13.26571 4.76204,17.80098 3.25028,4.53528 7.48322,6.80293 12.69879,6.80293 4.23293,0 8.31468,-2.11647 12.24526,-6.3494 l 24.15037,29.0258 c -11.26261,8.8438 -23.77243,13.2657 -37.52945,13.2657 -16.78054,0 -30.87771,-5.63131 -42.2915,-16.89393 -11.41379,-11.26261 -17.12068,-25.2086 -17.12068,-41.83796 0,-16.55378 5.74468,-30.53757 17.23406,-41.95135 11.56497,-11.4138 25.73772,-17.12069 42.51827,-17.12069 16.4026,0 30.15961,5.59351 41.27105,16.78054 11.18703,11.11144 16.78055,24.83066 16.78055,41.15767 0,1.66294 -0.15118,4.30853 -0.45353,7.93675 z"
           id="text10"
           aria-label="Divine"
           sodipodi:nodetypes="ccccscsssccsssccccccscscscscsccccccccccccscscscscsccsssccscscscccsccscscsccssscscsc" />
        <path
           style="fill:#c72d35;fill-opacity:1;stroke-width:0.941508;stroke-dasharray:none"
           d="M 145.60673,571.46017 C 126.2032,566.2522 106.11602,555.12608 93.698142,542.70842 73.489719,522.50038 64.721254,500.67194 64.721254,470.57264 c 0,-20.84885 2.701282,-33.89415 10.647213,-51.41851 14.791277,-32.62151 40.953373,-55.48824 72.804883,-63.63447 15.40633,-3.9403 36.87577,-4.4228 50.99722,-1.14612 l 8.78755,2.039 0.48178,30.51915 0.4818,30.51918 -3.99681,-0.98041 c -2.19825,-0.53926 -8.34664,-2.58648 -13.6631,-4.5494 -29.42597,-10.86463 -60.24156,5.77952 -69.4693,37.52187 -7.30298,25.1214 6.69531,53.26501 32.17986,64.69768 18.84256,8.45301 43.64158,3.38033 59.03091,-12.07489 15.90318,-15.97126 17.29668,-27.06574 16.64159,-132.49356 -0.57714,-92.88222 0.0138,-98.76624 12.4421,-123.90427 12.30185,-24.8821 34.10811,-44.43018 61.02103,-54.70192 16.08769,-6.14012 46.37116,-7.73295 64.78331,-3.40742 27.00723,6.34475 53.15862,24.58987 67.97805,47.42648 14.47691,22.30874 20.64283,57.80038 14.83245,85.37693 -8.19659,38.90181 -35.17433,68.41715 -74.90173,81.94708 -7.63619,2.60067 -14.83381,3.29204 -34.2714,3.29204 -13.53279,0 -26.78001,-0.60822 -29.43824,-1.35161 l -4.83315,-1.35162 v -29.84417 c 0,-33.75377 -0.84963,-32.21332 14.43437,-26.17015 12.74828,5.04055 29.51509,5.15632 40.43015,0.27904 11.64577,-5.20369 24.81537,-18.11357 29.64599,-29.06127 3.07449,-6.96776 4.02892,-12.3214 3.9835,-22.34453 -0.0782,-17.28692 -5.01865,-28.9448 -16.72718,-39.47177 -22.06916,-19.84207 -58.56833,-18.58627 -77.68202,2.67276 -14.71292,16.36432 -14.29378,12.89365 -14.31376,118.5231 -0.0194,102.57253 -0.61919,109.63234 -11.32566,133.30371 -14.164,31.31582 -45.84611,56.33897 -79.38454,62.69938 -14.42657,2.73596 -36.21781,1.86629 -50.71139,-2.02385 z m 12.68466,-79.056 c -32.62945,-16.1513 -14.94158,-68.13366 21.14366,-62.13851 14.76712,2.4534 23.72633,10.61454 27.58964,25.13208 2.42521,9.11332 1.19011,16.17251 -4.58723,26.21851 -8.03792,13.97681 -27.89879,18.83017 -44.14607,10.78792 z M 325.25458,325.44095 c -8.94478,-4.4276 -13.5718,-10.45167 -16.27574,-21.18992 -4.86353,-19.31481 7.43386,-37.07166 28.39734,-41.00444 16.31123,-3.06 33.02543,8.76115 36.54528,25.84672 5.89661,28.62255 -22.0724,49.51165 -48.66688,36.34764 z"
           id="path1"
           sodipodi:nodetypes="sssssscccscsssscssssssscssssssssssssssssssssss" />
        <path
           d="m 172.89314,429.79768 c 2.10381,-0.0554 4.28674,0.0931 6.54207,0.46782 14.76711,2.4534 23.72525,10.61402 27.58856,25.13156 2.42521,9.11332 1.19079,16.17276 -4.58655,26.21877 -8.03792,13.97681 -27.89854,18.83029 -44.14582,10.78804 -30.59011,-15.14185 -16.95533,-61.77594 14.60174,-62.60619 z"
           style="fill:#ee7e30;fill-opacity:1;stroke-width:0.941508;stroke-dasharray:none"
           id="path3" />
        <path
           d="m 343.48453,262.77859 c 14.17458,0.44628 27.35682,11.36434 30.43669,26.31421 5.89661,28.62255 -22.0724,49.51213 -48.66688,36.34812 -8.94478,-4.42759 -13.57076,-10.45234 -16.2747,-21.19059 -4.86352,-19.31481 7.4335,-37.07113 28.39697,-41.00391 2.03891,-0.3825 4.08298,-0.53158 6.10792,-0.46783 z"
           style="fill:#ee7e30;fill-opacity:1;stroke-width:0.941508;stroke-dasharray:none"
           id="path2" />
        <path
           style="font-weight:bold;font-size:90.6667px;line-height:0;font-family:Calibri;-inkscape-font-specification:'Calibri Bold';fill:#c72d35;stroke-width:0.982681"
           d="m 411.1659,631.44937 q 0,4.82552 -1.50521,8.54427 -1.50521,3.71875 -4.38281,6.28646 -2.87761,2.52344 -7.08334,3.85156 -4.16146,1.32813 -9.82813,1.32813 h -4.78125 v 18.28386 q 0,0.44271 -0.30989,0.79688 -0.26563,0.35416 -0.92969,0.57552 -0.66407,0.22135 -1.77084,0.35416 -1.10677,0.13282 -2.83333,0.13282 -1.68229,0 -2.83334,-0.13282 -1.10677,-0.13281 -1.77083,-0.35416 -0.66406,-0.22136 -0.92969,-0.57552 -0.26562,-0.35417 -0.26562,-0.79688 v -51.53127 q 0,-2.08073 1.0625,-3.09896 1.10677,-1.0625 2.8776,-1.0625 h 13.50261 q 2.03646,0 3.85157,0.17708 1.85937,0.13282 4.42708,0.66407 2.56771,0.48698 5.17969,1.85937 2.65625,1.3724 4.51563,3.4974 1.85937,2.08073 2.83333,4.91407 0.97396,2.78906 0.97396,6.28646 z m -12.17448,0.84114 q 0,-3.01042 -1.0625,-4.95833 -1.0625,-1.94792 -2.61198,-2.87761 -1.54948,-0.92969 -3.27605,-1.15104 -1.68229,-0.26563 -3.49739,-0.26563 h -4.95834 v 19.43491 h 5.22396 q 2.78907,0 4.64844,-0.75261 1.90365,-0.7526 3.09896,-2.08073 1.19531,-1.37239 1.81511,-3.23177 0.61979,-1.90365 0.61979,-4.11719 z m 65.91929,37.45314 q 0,0.44271 -0.30989,0.79688 -0.26563,0.35416 -0.92969,0.57552 -0.66406,0.22135 -1.77083,0.35416 -1.10678,0.13282 -2.78907,0.13282 -1.72656,0 -2.8776,-0.13282 -1.10678,-0.13281 -1.77084,-0.35416 -0.61979,-0.22136 -0.92969,-0.57552 -0.26562,-0.35417 -0.26562,-0.79688 V 646.59 h -21.42709 v 23.15365 q 0,0.44271 -0.26563,0.79688 -0.26562,0.35416 -0.92969,0.57552 -0.66406,0.22135 -1.77083,0.35416 -1.10677,0.13282 -2.83333,0.13282 -1.6823,0 -2.83334,-0.13282 -1.10677,-0.13281 -1.77083,-0.35416 -0.66407,-0.22136 -0.97396,-0.57552 -0.26563,-0.35417 -0.26563,-0.79688 v -54.09898 q 0,-0.44271 0.26563,-0.79687 0.30989,-0.35417 0.97396,-0.57552 0.66406,-0.22136 1.77083,-0.35417 1.15104,-0.13281 2.83334,-0.13281 1.72656,0 2.83333,0.13281 1.10677,0.13281 1.77083,0.35417 0.66407,0.22135 0.92969,0.57552 0.26563,0.35416 0.26563,0.79687 v 21.02866 h 21.42709 v -21.02866 q 0,-0.44271 0.26562,-0.79687 0.3099,-0.35417 0.92969,-0.57552 0.66406,-0.22136 1.77084,-0.35417 1.15104,-0.13281 2.8776,-0.13281 1.68229,0 2.78907,0.13281 1.10677,0.13281 1.77083,0.35417 0.66406,0.22135 0.92969,0.57552 0.30989,0.35416 0.30989,0.79687 z m 59.41149,-2.74479 q 0.53125,1.59375 0.66406,2.52344 0.13282,0.92969 -0.35416,1.41666 -0.48698,0.44271 -1.72657,0.53125 -1.23958,0.13282 -3.40885,0.13282 -2.25782,0 -3.54167,-0.0885 -1.23958,-0.0443 -1.90365,-0.22136 -0.66406,-0.22135 -0.92969,-0.57552 -0.26562,-0.35417 -0.4427,-0.92969 L 508.8274,658.2775 h -21.51563 l -3.63021,11.20053 q -0.17708,0.61979 -0.48698,1.0625 -0.26563,0.39843 -0.92969,0.66406 -0.61979,0.22135 -1.8151,0.3099 -1.15105,0.0885 -3.05469,0.0885 -2.03646,0 -3.1875,-0.13282 -1.15105,-0.13281 -1.59375,-0.61979 -0.44271,-0.53125 -0.3099,-1.46094 0.13281,-0.92968 0.66406,-2.47916 l 17.66407,-50.82294 q 0.26563,-0.7526 0.61979,-1.19531 0.35417,-0.48698 1.10678,-0.70834 0.79687,-0.26562 2.16927,-0.30989 1.37239,-0.0885 3.63021,-0.0885 2.61198,0 4.16146,0.0885 1.54948,0.0443 2.39062,0.30989 0.88542,0.22136 1.23959,0.70834 0.39843,0.48698 0.66406,1.32812 z m -26.29689,-42.01304 h -0.0443 l -8.10156,24.34897 h 16.2474 z m 76.80993,44.84637 q 0,0.48698 -0.17708,0.84115 -0.17709,0.3099 -0.84115,0.53125 -0.66406,0.22135 -1.94792,0.3099 -1.28385,0.0885 -3.49739,0.0885 -1.85938,0 -2.96615,-0.0885 -1.10677,-0.0886 -1.77084,-0.3099 -0.61979,-0.26563 -0.88541,-0.61979 -0.26563,-0.39844 -0.44271,-0.92969 l -5.13542,-12.79428 q -0.92969,-2.16927 -1.8151,-3.85156 -0.88542,-1.68229 -1.99219,-2.78906 -1.0625,-1.15105 -2.47917,-1.72657 -1.41667,-0.57552 -3.27604,-0.57552 h -3.63021 v 21.82553 q 0,0.44271 -0.3099,0.79688 -0.26562,0.35416 -0.92969,0.57552 -0.66406,0.22135 -1.77083,0.35416 -1.10677,0.13282 -2.83334,0.13282 -1.68229,0 -2.83333,-0.13282 -1.10677,-0.13281 -1.77083,-0.35416 -0.66407,-0.22136 -0.92969,-0.57552 -0.26563,-0.35417 -0.26563,-0.79688 V 617.7254 q 0,-1.94792 0.97396,-2.78906 1.01823,-0.88542 2.47917,-0.88542 h 14.83073 q 2.25782,0 3.71876,0.0885 1.46093,0.0885 2.65625,0.22136 3.45312,0.48698 6.19792,1.68229 2.78906,1.19531 4.69271,3.14323 1.94791,1.90365 2.96614,4.5599 1.01823,2.61198 1.01823,6.02083 0,2.87761 -0.7526,5.26823 -0.70834,2.34636 -2.125,4.20574 -1.41667,1.85937 -3.4974,3.23177 -2.08073,1.37239 -4.73698,2.21354 1.28385,0.61979 2.39062,1.50521 1.15105,0.88542 2.12501,2.16927 1.01823,1.23958 1.90364,2.87761 0.88542,1.59375 1.72657,3.63021 l 4.82552,11.28906 q 0.66406,1.6823 0.88542,2.47917 0.22135,0.7526 0.22135,1.19531 z m -15.00782,-38.8698 q 0,-2.83334 -1.28385,-4.78126 -1.28386,-1.94791 -4.20573,-2.74479 -0.88542,-0.22135 -2.03646,-0.35416 -1.10677,-0.13282 -3.09896,-0.13282 h -5.22396 v 16.2474 h 5.93229 q 2.47917,0 4.33854,-0.57552 1.85938,-0.61979 3.09896,-1.68229 1.23959,-1.10677 1.85938,-2.61198 0.61979,-1.50521 0.61979,-3.36458 z m 90.31254,38.78126 q 0,0.44271 -0.26562,0.79688 -0.22136,0.35416 -0.88542,0.57552 -0.61979,0.22135 -1.68229,0.35416 -1.0625,0.13282 -2.70052,0.13282 -1.59376,0 -2.65626,-0.13282 -1.0625,-0.13281 -1.68229,-0.35416 -0.61979,-0.22136 -0.88541,-0.57552 -0.26563,-0.35417 -0.26563,-0.79688 v -46.6172 h -0.0885 l -16.60157,46.57293 q -0.17708,0.57552 -0.57552,0.97396 -0.39844,0.35417 -1.10677,0.57552 -0.66407,0.22135 -1.72657,0.26563 -1.0625,0.0885 -2.56771,0.0885 -1.5052,0 -2.5677,-0.13282 -1.06251,-0.0885 -1.77084,-0.30989 -0.66406,-0.26563 -1.0625,-0.61979 -0.39844,-0.35417 -0.53125,-0.84115 L 594.4915,623.12645 h -0.0885 v 46.6172 q 0,0.44271 -0.26562,0.79688 -0.22136,0.35416 -0.88542,0.57552 -0.66406,0.22135 -1.72656,0.35416 -1.01823,0.13282 -2.65626,0.13282 -1.59375,0 -2.65625,-0.13282 -1.0625,-0.13281 -1.72656,-0.35416 -0.61979,-0.22136 -0.88542,-0.57552 -0.22135,-0.35417 -0.22135,-0.79688 v -51.04429 q 0,-2.25781 1.19531,-3.45313 1.19531,-1.19531 3.1875,-1.19531 h 7.61459 q 2.03646,0 3.4974,0.35417 1.46093,0.30989 2.52344,1.10677 1.0625,0.7526 1.77083,2.03646 0.70833,1.23958 1.23958,3.09896 l 12.39584,34.13282 h 0.17708 l 12.83855,-34.04428 q 0.57552,-1.85938 1.23959,-3.14323 0.70833,-1.28386 1.59375,-2.08073 0.92968,-0.79688 2.16927,-1.10677 1.23958,-0.35417 2.8776,-0.35417 h 7.83594 q 1.19532,0 2.03646,0.3099 0.88542,0.30989 1.41667,0.92969 0.57552,0.57552 0.84115,1.46093 0.30989,0.84115 0.30989,1.94792 z m 59.41147,-2.74479 q 0.53125,1.59375 0.66407,2.52344 0.13281,0.92969 -0.35417,1.41666 -0.48698,0.44271 -1.72656,0.53125 -1.23959,0.13282 -3.40886,0.13282 -2.25781,0 -3.54167,-0.0885 -1.23958,-0.0443 -1.90364,-0.22136 -0.66407,-0.22135 -0.92969,-0.57552 -0.26563,-0.35417 -0.44271,-0.92969 L 694.05664,658.2775 H 672.541 l -3.63021,11.20053 q -0.17708,0.61979 -0.48698,1.0625 -0.26562,0.39843 -0.92969,0.66406 -0.61979,0.22135 -1.8151,0.3099 -1.15104,0.0885 -3.05469,0.0885 -2.03646,0 -3.1875,-0.13282 -1.15104,-0.13281 -1.59375,-0.61979 -0.44271,-0.53125 -0.3099,-1.46094 0.13282,-0.92968 0.66407,-2.47916 l 17.66407,-50.82294 q 0.26562,-0.7526 0.61979,-1.19531 0.35416,-0.48698 1.10677,-0.70834 0.79687,-0.26562 2.16927,-0.30989 1.3724,-0.0885 3.63021,-0.0885 2.61198,0 4.16146,0.0885 1.54948,0.0443 2.39063,0.30989 0.88541,0.22136 1.23958,0.70834 0.39844,0.48698 0.66406,1.32812 z m -26.29688,-42.01304 h -0.0443 l -8.10157,24.34897 h 16.2474 z m 94.03129,6.46355 q 0,4.82552 -1.50521,8.54427 -1.50521,3.71875 -4.38282,6.28646 -2.8776,2.52344 -7.08333,3.85156 -4.16146,1.32813 -9.82813,1.32813 h -4.78125 v 18.28386 q 0,0.44271 -0.3099,0.79688 -0.26563,0.35416 -0.92969,0.57552 -0.66406,0.22135 -1.77083,0.35416 -1.10677,0.13282 -2.83334,0.13282 -1.68229,0 -2.83333,-0.13282 -1.10677,-0.13281 -1.77084,-0.35416 -0.66406,-0.22136 -0.92968,-0.57552 -0.26563,-0.35417 -0.26563,-0.79688 v -51.53127 q 0,-2.08073 1.0625,-3.09896 1.10677,-1.0625 2.87761,-1.0625 h 13.50261 q 2.03646,0 3.85156,0.17708 1.85938,0.13282 4.42709,0.66407 2.56771,0.48698 5.17969,1.85937 2.65625,1.3724 4.51562,3.4974 1.85938,2.08073 2.83334,4.91407 0.97396,2.78906 0.97396,6.28646 z m -12.17449,0.84114 q 0,-3.01042 -1.0625,-4.95833 -1.0625,-1.94792 -2.61198,-2.87761 -1.54948,-0.92969 -3.27604,-1.15104 -1.68229,-0.26563 -3.4974,-0.26563 h -4.95833 v 19.43491 h 5.22396 q 2.78906,0 4.64844,-0.75261 1.90364,-0.7526 3.09895,-2.08073 1.19532,-1.37239 1.81511,-3.23177 0.61979,-1.90365 0.61979,-4.11719 z m 61.97918,34.70835 q 0.53125,1.59375 0.66406,2.52344 0.13281,0.92969 -0.35417,1.41666 -0.48698,0.44271 -1.72656,0.53125 -1.23959,0.13282 -3.40886,0.13282 -2.25781,0 -3.54166,-0.0885 -1.23959,-0.0443 -1.90365,-0.22136 -0.66406,-0.22135 -0.92969,-0.57552 -0.26562,-0.35417 -0.44271,-0.92969 l -3.85156,-11.51042 h -21.51564 l -3.63021,11.20053 q -0.17708,0.61979 -0.48697,1.0625 -0.26563,0.39843 -0.92969,0.66406 -0.61979,0.22135 -1.81511,0.3099 -1.15104,0.0885 -3.05469,0.0885 -2.03646,0 -3.1875,-0.13282 -1.15104,-0.13281 -1.59375,-0.61979 -0.44271,-0.53125 -0.30989,-1.46094 0.13281,-0.92968 0.66406,-2.47916 l 17.66407,-50.82294 q 0.26562,-0.7526 0.61979,-1.19531 0.35417,-0.48698 1.10677,-0.70834 0.79688,-0.26562 2.16927,-0.30989 1.3724,-0.0885 3.63021,-0.0885 2.61198,0 4.16146,0.0885 1.54948,0.0443 2.39063,0.30989 0.88542,0.22136 1.23958,0.70834 0.39844,0.48698 0.66407,1.32812 z m -26.29689,-42.01304 h -0.0443 l -8.10157,24.34897 h 16.24741 z m 72.86982,37.6745 q 0,1.10677 -0.0885,1.90364 -0.0443,0.75261 -0.17709,1.32813 -0.13281,0.53125 -0.35416,0.92969 -0.22136,0.39843 -0.70834,0.92968 -0.48697,0.48698 -1.90364,1.28386 -1.3724,0.79687 -3.40886,1.54948 -1.99219,0.70833 -4.60417,1.19531 -2.56771,0.48698 -5.57812,0.48698 -5.88803,0 -10.62501,-1.8151 -4.73698,-1.81511 -8.05729,-5.40105 -3.32032,-3.63021 -5.09115,-9.03125 -1.77083,-5.40105 -1.77083,-12.57292 0,-7.30469 1.94791,-12.97136 1.94792,-5.66667 5.44532,-9.51824 3.4974,-3.85156 8.36719,-5.84375 4.91406,-1.99219 10.80209,-1.99219 2.39062,0 4.60416,0.39844 2.21355,0.39844 4.07292,1.0625 1.90365,0.61979 3.40886,1.46094 1.50521,0.84115 2.08073,1.46094 0.61979,0.57552 0.84114,0.97396 0.22136,0.39843 0.35417,1.01823 0.13281,0.61979 0.17708,1.46093 0.0886,0.84115 0.0886,2.08073 0,1.32813 -0.0886,2.25782 -0.0885,0.92969 -0.30989,1.50521 -0.22136,0.57552 -0.53125,0.84114 -0.3099,0.26563 -0.70833,0.26563 -0.66407,0 -1.6823,-0.75261 -1.01823,-0.79687 -2.65625,-1.72656 -1.59375,-0.97396 -3.85156,-1.72656 -2.21354,-0.79688 -5.3125,-0.79688 -3.40886,0 -6.10938,1.41667 -2.65625,1.3724 -4.5599,3.98438 -1.85938,2.5677 -2.83333,6.24219 -0.97396,3.67448 -0.97396,8.27864 0,5.04688 1.01823,8.76563 1.0625,3.67448 2.96614,6.06511 1.94792,2.39063 4.64844,3.58594 2.7448,1.15104 6.15365,1.15104 3.09896,0 5.35677,-0.70833 2.25782,-0.75261 3.85157,-1.63802 1.63802,-0.88542 2.65625,-1.59376 1.0625,-0.70833 1.63802,-0.70833 0.44271,0 0.70833,0.17708 0.26563,0.17709 0.44271,0.70834 0.17709,0.53125 0.26563,1.50521 0.0885,0.92968 0.0885,2.52344 z m 50.20317,6.95052 q 0,0.48698 -0.26563,0.88542 -0.22135,0.35416 -0.92969,0.61979 -0.66406,0.22135 -1.85937,0.35416 -1.19532,0.13282 -3.01042,0.13282 -2.87761,0 -4.16146,-0.22136 -1.23958,-0.22135 -1.8151,-0.66406 -0.53126,-0.44271 -0.84115,-1.0625 l -17.3099,-27.1823 v 27.1823 q 0,0.48698 -0.26563,0.84115 -0.26562,0.35416 -0.92969,0.61979 -0.66406,0.22135 -1.77083,0.35416 -1.10677,0.13282 -2.83334,0.13282 -1.68229,0 -2.83333,-0.13282 -1.10677,-0.13281 -1.77083,-0.35416 -0.66407,-0.26563 -0.97396,-0.61979 -0.26563,-0.35417 -0.26563,-0.84115 v -53.96617 q 0,-0.48698 0.26563,-0.84114 0.30989,-0.35417 0.97396,-0.57552 0.66406,-0.22136 1.77083,-0.35417 1.15104,-0.13281 2.83333,-0.13281 1.72657,0 2.83334,0.13281 1.10677,0.13281 1.77083,0.35417 0.66407,0.22135 0.92969,0.57552 0.26563,0.35416 0.26563,0.84114 v 24.39324 l 16.77865,-24.34897 q 0.30989,-0.57552 0.7526,-0.92968 0.44271,-0.39844 1.15105,-0.6198 0.70833,-0.22135 1.8151,-0.30989 1.10677,-0.0885 2.83333,-0.0885 1.77084,0 2.92188,0.13281 1.15104,0.13281 1.81511,0.39844 0.70833,0.22135 0.97395,0.57552 0.26563,0.35416 0.26563,0.79687 0,0.75261 -0.39844,1.54948 -0.39844,0.79688 -1.50521,2.52344 l -15.71615,20.58595 17.13282,25.89844 q 0.97396,1.81511 1.15104,2.4349 0.22136,0.57552 0.22136,0.92969 z"
           id="text2"
           aria-label="PHARMA PACK" />
      </g>
    </g>
  </g>
</svg>
