<?xml version="1.0" encoding="UTF-8" standalone="no"?>
<!-- Created with Inkscape (http://www.inkscape.org/) -->

<svg
   width="1000"
   height="1000"
   viewBox="0 0 1000 1000"
   version="1.1"
   id="svg1"
   inkscape:version="1.4 (86a8ad7, 2024-10-11)"
   sodipodi:docname="Divine-Surgicals.svg"
   inkscape:export-filename="final.png"
   inkscape:export-xdpi="96"
   inkscape:export-ydpi="96"
   xmlns:inkscape="http://www.inkscape.org/namespaces/inkscape"
   xmlns:sodipodi="http://sodipodi.sourceforge.net/DTD/sodipodi-0.dtd"
   xmlns="http://www.w3.org/2000/svg"
   xmlns:svg="http://www.w3.org/2000/svg">
  <sodipodi:namedview
     id="namedview1"
     pagecolor="#ffffff"
     bordercolor="#000000"
     borderopacity="0.25"
     inkscape:showpageshadow="true"
     inkscape:pageopacity="0.0"
     inkscape:pagecheckerboard="false"
     inkscape:deskcolor="#d1d1d1"
     inkscape:document-units="cm"
     showborder="true"
     borderlayer="true"
     labelstyle="default"
     inkscape:antialias-rendering="true"
     inkscape:clip-to-page="false"
     inkscape:lockguides="false"
     showguides="true"
     showgrid="false"
     inkscape:zoom="0.4926417"
     inkscape:cx="443.52721"
     inkscape:cy="586.63325"
     inkscape:window-width="1366"
     inkscape:window-height="768"
     inkscape:window-x="0"
     inkscape:window-y="0"
     inkscape:window-maximized="1"
     inkscape:current-layer="layer1">
    <sodipodi:guide
       position="0,1000"
       orientation="0,1000"
       id="guide1"
       inkscape:locked="false" />
    <sodipodi:guide
       position="1000,1000"
       orientation="1000,0"
       id="guide2"
       inkscape:locked="false" />
    <sodipodi:guide
       position="919.5324,-4.7870598"
       orientation="0,-1000"
       id="guide3"
       inkscape:locked="false" />
    <sodipodi:guide
       position="0,0"
       orientation="-1000,0"
       id="guide4"
       inkscape:locked="false" />
    <inkscape:grid
       id="grid7"
       units="cm"
       originx="500"
       originy="500"
       spacingx="37.795276"
       spacingy="37.795276"
       empcolor="#0099e5"
       empopacity="0.30196078"
       color="#0099e5"
       opacity="0.14901961"
       empspacing="5"
       enabled="true"
       visible="false" />
  </sodipodi:namedview>
  <defs
     id="defs1">
    <linearGradient
       id="swatch5"
       inkscape:swatch="solid">
      <stop
         style="stop-color:#ee7e30;stop-opacity:1;"
         offset="0"
         id="stop5" />
    </linearGradient>
  </defs>
  <g
     inkscape:label="Layer 1"
     inkscape:groupmode="layer"
     id="layer1">
    <g
       id="g5">
      <g
         id="g3"
         style="stroke-width:0.982677;stroke-dasharray:none"
         transform="matrix(0.95810527,0,0,0.95810527,20.947379,16.006606)">
        <text
           xml:space="preserve"
           style="font-weight:bold;font-size:69.8523px;font-family:'Bauhaus 93';-inkscape-font-specification:'Bauhaus 93 Bold';text-align:start;writing-mode:lr-tb;direction:ltr;text-anchor:start;fill:#800000;stroke-width:0.982677;stroke-dasharray:none"
           x="461.87473"
           y="464.50098"
           id="text7"><tspan
             sodipodi:role="line"
             id="tspan7"
             x="461.87473"
             y="464.50098"
             style="stroke-width:0.982677;stroke-dasharray:none" /></text>
        <path
           style="font-weight:bold;font-size:242.36px;line-height:21.6;font-family:'Bauhaus 93';-inkscape-font-specification:'Bauhaus 93 Bold';text-align:center;letter-spacing:0px;baseline-shift:baseline;text-anchor:middle;fill:#ee7e30;stroke-width:0.982677;stroke-dasharray:none"
           d="M 346.87359,467.87071 V 583.01538 H 298.82761 V 421.48149 h 62.60178 q 41.18227,0 64.49522,18.6977 27.69152,22.36623 27.69152,60.70834 0,36.68535 -23.66797,59.87996 -23.66797,23.19461 -60.94502,23.19461 -4.37857,0 -14.31912,-0.47336 v -47.45428 h 7.69209 q 42.01064,0 42.01064,-35.14693 0,-33.01682 -41.3006,-33.01682 z m 170.29104,-2.84015 v 117.98482 h -44.2591 V 465.03056 Z m -22.01121,-52.66123 q 8.99383,0 15.50252,6.39035 6.62703,6.27201 6.62703,14.91082 0,9.23051 -6.27201,15.1475 -6.15367,5.91699 -15.85754,5.91699 -9.70386,0 -15.97588,-5.91699 -6.15367,-5.91699 -6.15367,-15.1475 0,-8.63881 6.50869,-14.91082 6.62703,-6.39035 15.62086,-6.39035 z m 136.68252,52.66123 -55.14636,122.60007 -54.43633,-122.60007 h 42.24732 l 12.54403,31.83341 13.72742,-31.83341 z m 48.99271,0 v 117.98482 h -44.2591 V 465.03056 Z m -22.01121,-52.66123 q 8.99383,0 15.50252,6.39035 6.62703,6.27201 6.62703,14.91082 0,9.23051 -6.27201,15.1475 -6.15367,5.91699 -15.85754,5.91699 -9.70387,0 -15.97588,-5.91699 -6.15367,-5.91699 -6.15367,-15.1475 0,-8.63881 6.50869,-14.91082 6.62703,-6.39035 15.62086,-6.39035 z m 153.25008,170.64605 h -44.2591 v -66.62533 q 0,-10.17723 -8.40213,-10.17723 -8.28379,0 -8.28379,10.17723 v 66.62533 h -44.2591 v -65.79695 q 0,-23.07627 15.26584,-38.81547 15.26584,-15.85754 37.39539,-15.85754 25.32473,0 40.59057,18.34268 11.95232,14.31912 11.95232,39.88052 z m 141.77113,-51.83285 h -67.09869 q -1.53842,-5.08861 -1.53842,-9.34885 0,-5.91699 2.13011,-11.5973 h 22.48457 q -2.36679,-13.13573 -14.79248,-13.13573 -8.28378,0 -13.49074,7.10039 -5.20695,6.98206 -5.20695,17.98766 0,11.47897 4.97027,18.57936 5.08862,7.10039 13.25407,7.10039 6.62703,0 12.7807,-6.62703 l 25.20639,30.295 q -17.63264,13.84576 -39.17049,13.84576 -26.27145,0 -44.14077,-17.63264 -17.86931,-17.63264 -17.86931,-43.6674 0,-25.91643 17.98765,-43.78574 18.106,-17.86932 44.37745,-17.86932 25.67974,0 43.0757,17.5143 17.5143,17.39595 17.5143,42.95736 0,2.60348 -0.47336,8.28379 z"
           id="text10"
           aria-label="Divine" />
        <path
           style="fill:#c72d35;fill-opacity:1;stroke-width:0.982677;stroke-dasharray:none"
           d="M 130.11029,579.74169 C 109.8583,574.30599 88.89278,562.69336 75.93191,549.73272 54.83984,528.64105 45.68796,505.85812 45.68796,474.44268 c 0,-21.7605 2.8194,-35.37623 11.11278,-53.66687 15.43805,-34.04794 42.74413,-57.91455 75.9884,-66.41699 16.07999,-4.11259 38.48822,-4.61619 53.22715,-1.19624 l 9.1718,2.12816 0.50285,31.85365 0.50287,31.85369 -4.17158,-1.02329 c -2.29437,-0.56283 -8.71161,-2.69957 -14.26054,-4.74832 -30.71267,-11.33971 -62.87572,6.03223 -72.50696,39.16257 -7.62232,26.21988 6.98807,55.59411 33.58698,67.52669 19.66648,8.82263 45.54988,3.52814 61.61213,-12.60288 16.59857,-16.66963 18.05301,-28.24923 17.36927,-138.28706 -0.60237,-96.94365 0.0144,-103.08496 12.98615,-129.32219 12.83977,-25.97011 35.59955,-46.37296 63.68928,-57.09385 16.79115,-6.40861 48.39881,-8.07109 67.61606,-3.55641 28.18817,6.62218 55.48307,25.6651 70.95051,49.50028 15.10993,23.28422 21.54547,60.32779 15.48102,89.11017 -8.555,40.60286 -36.71239,71.40881 -78.17693,85.53035 -7.9701,2.71439 -15.48244,3.43599 -35.76997,3.43599 -14.12454,0 -27.95102,-0.63481 -30.72548,-1.41071 l -5.04449,-1.41072 v -31.14916 c 0,-35.2297 -0.88678,-33.6219 15.06554,-27.31448 13.30572,5.26096 30.80568,5.38179 42.19802,0.29124 12.155,-5.43123 25.90047,-18.90561 30.94231,-30.33202 3.20893,-7.27243 4.20509,-12.86017 4.15769,-23.32158 -0.0816,-18.04282 -5.2381,-30.21046 -17.45861,-41.19774 -23.03417,-20.7097 -61.12932,-19.39898 -81.07879,2.78963 -15.35627,17.07988 -14.9188,13.45745 -14.93965,123.70572 -0.0202,107.05768 -0.64627,114.4262 -11.8209,139.13264 -14.78334,32.68515 -47.8508,58.80248 -82.85575,65.44101 -15.0574,2.85559 -37.8015,1.9479 -52.92883,-2.11235 z m 13.23931,-82.51286 c -34.05622,-16.85754 -15.59492,-71.11291 22.06821,-64.85562 15.41283,2.56068 24.7638,11.07868 28.79604,26.23102 2.53125,9.51182 1.24215,16.87968 -4.78782,27.36496 -8.38939,14.58797 -29.11871,19.65355 -46.07643,11.25964 z M 317.61353,322.96487 c -9.3359,-4.6212 -14.16525,-10.90869 -16.98742,-22.11648 -5.07619,-20.15939 7.75892,-38.69268 29.63906,-42.79743 17.02447,-3.1938 34.46952,9.14424 38.14328,26.97691 6.15445,29.87412 -23.03755,51.67663 -50.79492,37.937 z"
           id="path1"
           sodipodi:nodetypes="sssssscccscsssscssssssscssssssssssssssssssssss" />
        <path
           d="m 158.58984,431.88477 c 2.1958,-0.0578 4.47418,0.0972 6.82813,0.48828 15.41283,2.56068 24.76268,11.07813 28.79492,26.23047 2.53125,9.51182 1.24286,16.87995 -4.78711,27.36523 -8.38939,14.58797 -29.11845,19.65368 -46.07617,11.25977 -31.92771,-15.80395 -17.69673,-64.4772 15.24023,-65.34375 z"
           style="fill:#ee7e30;fill-opacity:1;stroke-width:0.982677;stroke-dasharray:none"
           id="path3" />
        <path
           d="m 336.64062,257.5625 c 14.79439,0.46579 28.55304,11.86126 31.76758,27.46484 6.15445,29.87412 -23.03755,51.67713 -50.79492,37.9375 -9.3359,-4.6212 -14.16416,-10.90939 -16.98633,-22.11718 -5.07619,-20.15939 7.75854,-38.69213 29.63867,-42.79688 2.12806,-0.39922 4.26152,-0.55482 6.375,-0.48828 z"
           style="fill:#ee7e30;fill-opacity:1;stroke-width:0.982677;stroke-dasharray:none"
           id="path2" />
      </g>
      <path
         style="font-weight:bold;font-size:90px;line-height:0;font-family:Rockwell;-inkscape-font-specification:Rockwell;text-align:center;letter-spacing:0px;text-anchor:middle;fill:#c72d35;stroke-width:0.982677"
         d="m 529.39984,668.74042 v -20.83008 h 10.3711 q 0.17578,5.71289 2.98828,8.4375 2.8125,2.68066 6.41601,2.68066 2.8125,0 4.7461,-1.93359 1.93359,-1.97754 1.93359,-4.61426 0,-2.8125 -1.88965,-4.70215 -1.88965,-1.93359 -6.89941,-4.39453 -10.59082,-5.1416 -14.41407,-9.05273 -3.77929,-3.91114 -3.77929,-10.54688 0,-7.99804 5.00976,-12.39258 5.00977,-4.39453 11.38184,-4.39453 7.29492,0 11.29394,5.66895 v -5.05371 h 10.32715 v 18.58886 h -10.32715 q -0.48339,-4.30664 -2.98828,-6.63574 -2.46093,-2.37304 -5.75683,-2.37304 -2.54883,0 -4.30664,1.3623 -1.75782,1.36231 -1.75782,3.55957 0,1.88965 1.4502,3.60352 1.45019,1.66992 8.48144,4.79004 6.76758,3.03222 10.3711,5.49316 3.64746,2.41699 5.75683,6.32812 2.10938,3.86719 2.10938,8.96485 0,9.05273 -5.27344,13.62305 -5.27344,4.57031 -12.48047,4.57031 -8.04199,0 -12.39257,-5.93262 v 5.18555 z m 97.5586,-9.79981 v 9.79981 h -20.43458 v -3.60352 q -6.10839,4.21875 -12.39257,4.21875 -6.15235,0 -9.66797,-3.42773 -3.47168,-3.47168 -3.47168,-9.75586 V 636.0451 h -6.37207 v -9.84375 h 19.90722 v 26.49903 q 0,3.16406 0.9668,4.35058 0.9668,1.14258 3.51563,1.14258 3.42773,0 7.51464,-3.03222 V 636.0451 h -6.54785 v -9.84375 h 20.12696 v 32.73926 z m 34.54101,0 v 9.79981 h -29.92676 v -9.79981 h 7.86621 V 636.0451 h -7.38281 v -9.84375 h 19.81934 v 10.81055 q 1.14258,-4.6582 5.18554,-8.04199 4.08692,-3.42773 9.62403,-3.42773 0.92285,0 2.19726,0.0439 v 12.83203 q -5.1416,0 -8.39355,1.14258 -3.25195,1.14258 -5.36133,5.00977 -2.10937,3.86718 -2.10937,9.14062 v 5.22949 z m 62.75391,-32.73926 v 9.84375 h -7.03125 v 31.4209 q 0,21.04981 -22.23633,21.04981 -12.74414,0 -18.98438,-4.61426 l 6.5918,-9.00879 q 5.1416,3.16406 10.32715,3.16406 4.52637,0 7.60254,-2.3291 3.12012,-2.3291 3.12012,-9.05273 v -3.25196 q -6.63575,5.93262 -12.91993,5.93262 -7.38281,0 -12.6123,-6.15234 -5.18555,-6.19629 -5.18555,-15.77637 0,-9.62402 5.36133,-15.73242 5.36133,-6.15234 13.0957,-6.15234 7.42676,0 12.26075,5.84472 v -5.18555 z m -20.56641,21.40137 q 0,-5.1416 -2.28516,-8.12988 -2.28515,-2.98828 -6.24023,-2.98828 -4.04297,0 -6.19629,3.07617 -2.10937,3.07617 -2.10937,7.91016 0,4.83398 2.19726,7.91015 2.24121,3.03223 6.1084,3.03223 3.55957,0 6.02051,-2.8125 2.50488,-2.85645 2.50488,-7.99805 z m 31.81641,-33.57422 q 0,-3.07617 2.15332,-5.27343 2.19726,-2.19727 5.27343,-2.19727 3.12012,0 5.27344,2.19727 2.15332,2.19726 2.15332,5.27343 0,3.07618 -2.19726,5.27344 -2.15332,2.15332 -5.2295,2.15332 -3.03222,0 -5.22949,-2.19726 -2.19726,-2.19727 -2.19726,-5.2295 z m -5.97657,22.0166 v -9.84375 h 20.03907 v 32.73926 h 6.32812 v 9.79981 h -26.36719 v -9.79981 h 6.45997 V 636.0451 Z m 75.23438,-9.84375 v 17.27051 h -9.66797 q -3.2959,-7.11914 -10.32715,-7.11914 -4.48242,0 -7.16308,2.98828 -2.63672,2.94434 -2.63672,7.91016 0,6.02051 2.8125,8.9209 2.8125,2.85644 6.89941,2.85644 3.25195,0 6.15235,-1.8457 2.90039,-1.88965 4.6582,-4.96582 l 10.54687,4.6582 q -5.88867,12.83203 -20.65429,12.83203 -11.11817,0 -17.75391,-6.06445 -6.5918,-6.06445 -6.5918,-16.21582 0,-10.15137 6.45996,-15.99609 6.50391,-5.88867 15.11719,-5.88867 6.89942,0 12.87598,4.1748 v -3.51563 z m 54.71191,32.73926 v 9.79981 h -20.43457 v -3.33985 q -5.49316,3.95508 -11.60156,3.95508 -6.32812,0 -10.94238,-3.60351 -4.57031,-3.60352 -4.57031,-9.66797 0,-6.1084 4.83398,-10.23926 4.83398,-4.13086 12.48047,-4.13086 4.26269,0 9.7998,2.15332 v -2.59277 q 0,-3.25196 -2.19726,-5.31739 -2.19727,-2.10937 -5.88867,-2.10937 -4.57032,0 -7.82227,3.33984 l -10.94238,-1.97754 q 4.74609,-10.06347 20.61035,-10.06347 6.15234,0 10.19531,1.40625 4.04297,1.3623 6.02051,3.55957 1.97754,2.19726 2.76855,4.83398 0.83496,2.59278 0.83496,8.48145 v 15.51269 z M 839.03851,653.008 q -4.92187,-3.07618 -7.86621,-3.07618 -2.3291,0 -4.26269,1.36231 -1.88965,1.3623 -1.88965,3.95508 0,2.3291 1.53808,3.99902 1.53809,1.66992 3.95508,1.66992 3.7793,0 8.52539,-4.43847 z m 25.00489,15.73242 v -9.79981 h 6.67968 v -41.52832 h -6.67968 v -9.7998 h 20.25879 v 51.32812 h 6.10839 v 9.79981 z m 33.79394,0 v -14.63379 h 9.93164 q 0.13184,2.98828 2.76856,4.79004 2.63672,1.75781 6.5039,1.75781 3.33985,0 5.18555,-1.14258 1.88965,-1.18652 1.88965,-2.98828 0,-1.66992 -1.71387,-2.59277 -1.71387,-0.92285 -6.72363,-1.75782 -10.32715,-1.66992 -14.89746,-5.05371 -4.57032,-3.42773 -4.57032,-9.05273 0,-5.27344 4.30665,-8.87695 4.30664,-3.64746 11.42578,-3.64746 5.75683,0 10.7666,2.10937 v -1.4502 h 9.71191 v 12.34864 h -9.71191 q -1.31836,-4.43848 -9.31641,-4.43848 -5.88867,0 -5.88867,3.25195 0,1.23047 1.18652,1.88965 1.23047,0.61524 6.19629,1.49414 7.86621,1.36231 11.77735,2.72461 3.91113,1.36231 6.24023,4.52637 2.37305,3.12012 2.37305,7.51465 0,6.24023 -4.48242,10.23926 -4.43848,3.95507 -12.61231,3.95507 -7.60254,0 -10.41504,-3.07617 v 2.10938 z"
         id="text1"
         aria-label="Surgicals" />
    </g>
  </g>
</svg>
